<svg xmlns="http://www.w3.org/2000/svg" width="720" height="720" viewBox="0 0 720 720">
    <!-- rings を2層に分けたうちの奥（細い・薄い／ゆっくり）。
       継ぎ目をまたぐ図形の複製は必ず同じ層に入れてある。 -->
  <g stroke="#fff" fill="none">
    <circle cx="-532" cy="-484" r="120" stroke-width="18" stroke-opacity="0.71"/>
    <circle cx="-74" cy="-704" r="173" stroke-width="18" stroke-opacity="0.77"/>
    <circle cx="-638" cy="-392" r="210" stroke-width="18" stroke-opacity="0.72"/>
    <circle cx="-422" cy="-648" r="189" stroke-width="28" stroke-opacity="0.58"/>
    <circle cx="-8" cy="-309" r="155" stroke-width="18" stroke-opacity="0.72"/>
    <circle cx="-571" cy="-582" r="100" stroke-width="28" stroke-opacity="0.44"/>
    <circle cx="-212" cy="-715" r="148" stroke-width="28" stroke-opacity="0.64"/>
    <circle cx="-532" cy="236" r="120" stroke-width="18" stroke-opacity="0.71"/>
    <circle cx="-74" cy="16" r="173" stroke-width="18" stroke-opacity="0.77"/>
    <circle cx="-638" cy="328" r="210" stroke-width="18" stroke-opacity="0.72"/>
    <circle cx="-422" cy="72" r="189" stroke-width="28" stroke-opacity="0.58"/>
    <circle cx="-8" cy="411" r="155" stroke-width="18" stroke-opacity="0.72"/>
    <circle cx="-571" cy="138" r="100" stroke-width="28" stroke-opacity="0.44"/>
    <circle cx="-212" cy="5" r="148" stroke-width="28" stroke-opacity="0.64"/>
    <circle cx="-532" cy="956" r="120" stroke-width="18" stroke-opacity="0.71"/>
    <circle cx="-74" cy="736" r="173" stroke-width="18" stroke-opacity="0.77"/>
    <circle cx="-638" cy="1048" r="210" stroke-width="18" stroke-opacity="0.72"/>
    <circle cx="-422" cy="792" r="189" stroke-width="28" stroke-opacity="0.58"/>
    <circle cx="-8" cy="1131" r="155" stroke-width="18" stroke-opacity="0.72"/>
    <circle cx="-571" cy="858" r="100" stroke-width="28" stroke-opacity="0.44"/>
    <circle cx="-212" cy="725" r="148" stroke-width="28" stroke-opacity="0.64"/>
    <circle cx="188" cy="-484" r="120" stroke-width="18" stroke-opacity="0.71"/>
    <circle cx="646" cy="-704" r="173" stroke-width="18" stroke-opacity="0.77"/>
    <circle cx="82" cy="-392" r="210" stroke-width="18" stroke-opacity="0.72"/>
    <circle cx="298" cy="-648" r="189" stroke-width="28" stroke-opacity="0.58"/>
    <circle cx="712" cy="-309" r="155" stroke-width="18" stroke-opacity="0.72"/>
    <circle cx="149" cy="-582" r="100" stroke-width="28" stroke-opacity="0.44"/>
    <circle cx="508" cy="-715" r="148" stroke-width="28" stroke-opacity="0.64"/>
    <circle cx="188" cy="236" r="120" stroke-width="18" stroke-opacity="0.71"/>
    <circle cx="646" cy="16" r="173" stroke-width="18" stroke-opacity="0.77"/>
    <circle cx="82" cy="328" r="210" stroke-width="18" stroke-opacity="0.72"/>
    <circle cx="298" cy="72" r="189" stroke-width="28" stroke-opacity="0.58"/>
    <circle cx="712" cy="411" r="155" stroke-width="18" stroke-opacity="0.72"/>
    <circle cx="149" cy="138" r="100" stroke-width="28" stroke-opacity="0.44"/>
    <circle cx="508" cy="5" r="148" stroke-width="28" stroke-opacity="0.64"/>
    <circle cx="188" cy="956" r="120" stroke-width="18" stroke-opacity="0.71"/>
    <circle cx="646" cy="736" r="173" stroke-width="18" stroke-opacity="0.77"/>
    <circle cx="82" cy="1048" r="210" stroke-width="18" stroke-opacity="0.72"/>
    <circle cx="712" cy="1131" r="155" stroke-width="18" stroke-opacity="0.72"/>
    <circle cx="908" cy="-484" r="120" stroke-width="18" stroke-opacity="0.71"/>
    <circle cx="1366" cy="-704" r="173" stroke-width="18" stroke-opacity="0.77"/>
    <circle cx="802" cy="-392" r="210" stroke-width="18" stroke-opacity="0.72"/>
    <circle cx="1432" cy="-309" r="155" stroke-width="18" stroke-opacity="0.72"/>
    <circle cx="908" cy="236" r="120" stroke-width="18" stroke-opacity="0.71"/>
    <circle cx="1366" cy="16" r="173" stroke-width="18" stroke-opacity="0.77"/>
    <circle cx="802" cy="328" r="210" stroke-width="18" stroke-opacity="0.72"/>
    <circle cx="1432" cy="411" r="155" stroke-width="18" stroke-opacity="0.72"/>
    <circle cx="908" cy="956" r="120" stroke-width="18" stroke-opacity="0.71"/>
    <circle cx="1366" cy="736" r="173" stroke-width="18" stroke-opacity="0.77"/>
    <circle cx="802" cy="1048" r="210" stroke-width="18" stroke-opacity="0.72"/>
    <circle cx="1432" cy="1131" r="155" stroke-width="18" stroke-opacity="0.72"/>
    <circle cx="298" cy="792" r="189" stroke-width="28" stroke-opacity="0.58"/>
    <circle cx="149" cy="858" r="100" stroke-width="28" stroke-opacity="0.44"/>
    <circle cx="508" cy="725" r="148" stroke-width="28" stroke-opacity="0.64"/>
    <circle cx="1018" cy="-648" r="189" stroke-width="28" stroke-opacity="0.58"/>
    <circle cx="869" cy="-582" r="100" stroke-width="28" stroke-opacity="0.44"/>
    <circle cx="1228" cy="-715" r="148" stroke-width="28" stroke-opacity="0.64"/>
    <circle cx="1018" cy="72" r="189" stroke-width="28" stroke-opacity="0.58"/>
    <circle cx="869" cy="138" r="100" stroke-width="28" stroke-opacity="0.44"/>
    <circle cx="1228" cy="5" r="148" stroke-width="28" stroke-opacity="0.64"/>
    <circle cx="1018" cy="792" r="189" stroke-width="28" stroke-opacity="0.58"/>
    <circle cx="869" cy="858" r="100" stroke-width="28" stroke-opacity="0.44"/>
    <circle cx="1228" cy="725" r="148" stroke-width="28" stroke-opacity="0.64"/>
  </g>
</svg>
