<svg xmlns="http://www.w3.org/2000/svg" width="720" height="720" viewBox="0 0 720 720">
  <!-- pattern-vstripes を2層に分けたうちの手前（太い・濃い／速い） -->
  <g fill="#fff" stroke="none">
    <rect x="-144" y="-1440" width="76" height="2160" fill-opacity="0.37"/>
    <rect x="-16" y="-1440" width="76" height="2160" fill-opacity="0.6"/>
    <rect x="-720" y="-720" width="60" height="2160" fill-opacity="0.44"/>
    <rect x="-144" y="-720" width="76" height="2160" fill-opacity="0.37"/>
    <rect x="-16" y="-720" width="76" height="2160" fill-opacity="0.6"/>
    <rect x="-720" y="0" width="60" height="2160" fill-opacity="0.44"/>
    <rect x="-144" y="0" width="76" height="2160" fill-opacity="0.37"/>
    <rect x="-16" y="0" width="76" height="2160" fill-opacity="0.6"/>
    <rect x="0" y="-1440" width="60" height="2160" fill-opacity="0.44"/>
    <rect x="576" y="-1440" width="76" height="2160" fill-opacity="0.37"/>
    <rect x="704" y="-1440" width="76" height="2160" fill-opacity="0.6"/>
    <rect x="0" y="-720" width="60" height="2160" fill-opacity="0.44"/>
    <rect x="576" y="-720" width="76" height="2160" fill-opacity="0.37"/>
    <rect x="704" y="-720" width="76" height="2160" fill-opacity="0.6"/>
    <rect x="0" y="0" width="60" height="2160" fill-opacity="0.44"/>
    <rect x="576" y="0" width="76" height="2160" fill-opacity="0.37"/>
    <rect x="704" y="0" width="76" height="2160" fill-opacity="0.6"/>
    <rect x="720" y="-1440" width="60" height="2160" fill-opacity="0.44"/>
    <rect x="1296" y="-1440" width="76" height="2160" fill-opacity="0.37"/>
    <rect x="1424" y="-1440" width="76" height="2160" fill-opacity="0.6"/>
    <rect x="720" y="-720" width="60" height="2160" fill-opacity="0.44"/>
    <rect x="1296" y="-720" width="76" height="2160" fill-opacity="0.37"/>
    <rect x="1424" y="-720" width="76" height="2160" fill-opacity="0.6"/>
    <rect x="720" y="0" width="60" height="2160" fill-opacity="0.44"/>
    <rect x="1296" y="0" width="76" height="2160" fill-opacity="0.37"/>
    <rect x="1424" y="0" width="76" height="2160" fill-opacity="0.6"/>
  </g>
</svg>
